PathFileType	4	(X/Y/Z)	./resultDataOpenSim/trcMotMarkerGrf/sub10/qtm-05-01.trc
DataRate	CameraRate	NumFrames	NumMarkers	Units	OrigDataRate	OrigDataStartFrame	OrigNumFrames
250.000000	250.000000	6	24	m	250.000000	311	496
Frame#	Time	L.Toe.Tip			R.Toe.Tip			L.Ankle.Lat			R.Ankle.Lat			L.Ankle.Med			R.Ankle.Med			L.Heel			R.Heel			L.Knee.Lat			R.Knee.Lat			L.Knee.Med			R.Knee.Med			L.Thigh.Upper			R.Thigh.Upper			L.ASIS			R.ASIS			V.Sacral			L.Acromium			R.Acromium			C7			L.Elbow			R.Elbow			L.Wrist.Lat			R.Wrist.Lat
		X1	Y1	Z1	X2	Y2	Z2	X3	Y3	Z3	X4	Y4	Z4	X5	Y5	Z5	X6	Y6	Z6	X7	Y7	Z7	X8	Y8	Z8	X9	Y9	Z9	X10	Y10	Z10	X11	Y11	Z11	X12	Y12	Z12	X13	Y13	Z13	X14	Y14	Z14	X15	Y15	Z15	X16	Y16	Z16	X17	Y17	Z17	X18	Y18	Z18	X19	Y19	Z19	X20	Y20	Z20	X21	Y21	Z21	X22	Y22	Z22	X23	Y23	Z23	X24	Y24	Z24

311	1.24	0.092012673	-0.058141166	-0.085695331	0.95048122	0.039704711	0.03294037	0.026292673	0.056816994	-0.13340002	0.80742827	0.054945997	0.066654183	0.052410876	0.068730943	-0.055539077	0.82592514	0.081052232	-0.017108879	-0.030043194	0.082856255	-0.086504169	0.75727134	0.030050249	0.021819353	0.26642044	0.36494002	-0.15921255	0.799591	0.45168813	0.093124903	0.27847964	0.32907678	-0.040645522	0.80006327	0.46479209	-0.036043922	0.4171062	0.71777386	-0.1992949	0.56634322	0.77512048	0.16349521	0.51656354	0.80956988	-0.16897078	0.59911176	0.8458981	0.061160325	0.37558826	0.85069611	0.018677851	0.55599078	1.2997634	-0.1876521	0.53754449	1.2973357	0.12658478	0.46517582	1.3299761	-0.041703654	0.62020772	0.95877914	-0.24166977	0.33589352	1.0217398	0.15805725	0.84328609	0.95315883	-0.12583085	0.32202369	0.81293939	0.28881318
312	1.244	0.093617404	-0.058751396	-0.086100246	0.95086565	0.039515511	0.032554389	0.031883276	0.058454994	-0.13466088	0.80777978	0.055067332	0.066231651	0.05922261	0.069707288	-0.057139834	0.82626047	0.080565853	-0.017678956	-0.022953934	0.086279635	-0.086894606	0.75750726	0.030138358	0.021653626	0.27454081	0.36508723	-0.15982695	0.80514026	0.45105674	0.092146734	0.28697373	0.32836268	-0.041814117	0.80538827	0.46525174	-0.036817713	0.42477815	0.71729419	-0.1992108	0.57307128	0.77661985	0.16374254	0.52455508	0.80930684	-0.16781066	0.60648421	0.84696354	0.061886234	0.38032855	0.85187743	0.01643634	0.56352063	1.3006876	-0.18658168	0.54470031	1.2980582	0.12735281	0.47225912	1.3307186	-0.040810201	0.62616335	0.95938368	-0.24098805	0.34422491	1.0218652	0.15830921	0.84881712	0.95183818	-0.12470879	0.33088243	0.81288601	0.28950882
313	1.248	0.095023753	-0.059175066	-0.086698438	0.95118527	0.039374559	0.032309113	0.037738206	0.0601621	-0.13591655	0.80808175	0.055185942	0.065860471	0.066170374	0.070744189	-0.058698321	0.82657195	0.080100464	-0.018189329	-0.015675862	0.089785627	-0.087370963	0.7577056	0.030227886	0.021498727	0.2828914	0.36516941	-0.16049904	0.8104189	0.4501735	0.091192923	0.29582658	0.32750589	-0.043125304	0.81041105	0.46538277	-0.037540598	0.43247204	0.71683987	-0.19918167	0.57979306	0.77811339	0.16398302	0.53246393	0.80908912	-0.16658939	0.61375997	0.84810233	0.062656279	0.38513067	0.85305037	0.014280789	0.57096373	1.3016292	-0.18553682	0.55174512	1.2988413	0.12809972	0.47925235	1.3314752	-0.039950899	0.63202693	0.96004321	-0.24036066	0.35266447	1.0218406	0.15861263	0.8542228	0.95040687	-0.12376517	0.33987633	0.81278206	0.29021861
314	1.252	0.096320218	-0.059263847	-0.087454041	0.95150478	0.03924103	0.032222115	0.043788578	0.062017275	-0.13717379	0.80837024	0.055279588	0.065558069	0.073160966	0.071922077	-0.060186979	0.82697121	0.079667905	-0.018630146	-0.0082869493	0.093442223	-0.087962878	0.75788828	0.030319263	0.02137307	0.29145439	0.36517873	-0.16123678	0.81547218	0.44915434	0.090287263	0.30503938	0.32649487	-0.044599989	0.81519173	0.46520717	-0.038217915	0.44018756	0.71641235	-0.19917059	0.58650633	0.77959976	0.16422874	0.54028194	0.80891928	-0.16532533	0.62092448	0.84929983	0.063447581	0.39108864	0.85409588	0.013006058	0.57831276	1.3025856	-0.18452752	0.55866454	1.2996735	0.12882179	0.48615866	1.3322537	-0.039136824	0.63782039	0.96076707	-0.23980267	0.3612158	1.0216547	0.15897626	0.859487	0.94881139	-0.12288652	0.34893741	0.81265192	0.29093062
315	1.256	0.097705262	-0.058926792	-0.088195021	0.95180718	0.039115647	0.03219639	0.049981948	0.064072725	-0.13842077	0.8086666	0.05531516	0.06533151	0.08011652	0.073316037	-0.061550699	0.8274176	0.079288974	-0.018991053	-0.00082924673	0.097323638	-0.088724483	0.75804679	0.030398953	0.021310036	0.30023462	0.36510155	-0.16206072	0.82032708	0.44810808	0.089453463	0.31461162	0.32532936	-0.046252031	0.81976398	0.46475052	-0.038870097	0.44793449	0.71601342	-0.19912853	0.59322489	0.78107707	0.16450346	0.54801042	0.80879973	-0.16403381	0.6279726	0.85054899	0.064245738	0.3983308	0.85501158	0.012731082	0.58556368	1.3035631	-0.18356552	0.56545823	1.3005568	0.12952201	0.49297944	1.3330657	-0.038372723	0.64354274	0.96155848	-0.23931471	0.36984803	1.0213745	0.15940034	0.86462688	0.94704193	-0.12198237	0.35802193	0.81252187	0.29164218
316	1.26	0.099365894	-0.058123004	-0.088770336	0.952058	0.039009455	0.032160111	0.056296661	0.066366298	-0.1396136	0.80897311	0.055284137	0.065168859	0.086986978	0.074987189	-0.062727589	0.82780473	0.078971041	-0.019268368	0.0067096139	0.10149022	-0.089700724	0.75816851	0.030457971	0.021321346	0.30927155	0.36492953	-0.16300012	0.82498337	0.44709897	0.08869266	0.32454279	0.32402395	-0.048065304	0.82413526	0.46404625	-0.03952419	0.45571705	0.71564894	-0.19902841	0.59997762	0.78254305	0.16483422	0.55565191	0.80873457	-0.16272767	0.63490677	0.85184515	0.065043972	0.40615902	0.85591948	0.013011846	0.59271237	1.3045748	-0.18266389	0.57213468	1.3015	0.13020356	0.49970938	1.3339234	-0.037658353	0.64918335	0.96241676	-0.23889304	0.37852159	1.021059	0.15986652	0.86967058	0.9451374	-0.12105715	0.3671431	0.81239642	0.29235988
